<svg width="1338" height="405" viewBox="0 0 1338 405" fill="none" xmlns="http://www.w3.org/2000/svg">
<g filter="url(#filter0_d_1054_909)">
<path d="M577.621 301.426H596.35V207.686L640.653 301.426H649.685L693.893 207.686V301.33H712.717V164.523H694.558L645.216 267.485L595.589 164.523H577.621V301.426Z" fill="white"/>
<path d="M779.188 304.278C789.138 304.278 798.17 301.774 806.283 296.767C814.396 291.697 820.448 284.566 824.441 275.376L804.952 269.196C799.755 280.098 790.85 285.549 778.237 285.549C769.617 285.549 762.835 282.95 757.892 277.753C752.948 272.556 750.064 265.203 749.24 255.696H825.772C826.47 243.401 825.012 232.784 821.399 223.848C817.786 214.911 812.304 208.034 804.952 203.217C797.6 198.337 788.695 195.897 778.237 195.897C768.223 195.897 759.445 198.147 751.902 202.647C744.36 207.147 738.466 213.517 734.219 221.756C730.036 229.996 727.944 239.725 727.944 250.943C727.944 261.527 730.068 270.844 734.314 278.894C738.624 286.88 744.614 293.123 752.283 297.623C760.015 302.059 768.983 304.278 779.188 304.278ZM778.998 213.485C794.526 213.485 803.336 222.39 805.427 240.2H749.716C750.983 231.517 754.057 224.893 758.938 220.33C763.818 215.767 770.505 213.485 778.998 213.485Z" fill="white"/>
<path d="M900.152 301.426V284.598C893.434 285.612 887.571 285.834 882.564 285.263C877.62 284.63 874.008 282.38 871.726 278.513C870.522 276.422 869.856 273.855 869.729 270.813C869.666 267.77 869.634 264.189 869.634 260.07V214.721H900.152V198.749H869.634V170.228H849.669V198.749H829.99V214.721H849.669V261.02C849.669 266.598 849.733 271.605 849.86 276.042C850.05 280.415 851.254 284.725 853.472 288.971C856.007 293.725 859.715 297.211 864.596 299.429C869.476 301.647 875.022 302.852 881.233 303.042C887.444 303.232 893.751 302.693 900.152 301.426Z" fill="white"/>
<path d="M945.092 304.278C961.445 304.278 973.772 298.352 982.075 286.499V301.426H999.663V238.203C999.663 233.893 999.473 229.869 999.093 226.129C998.712 222.39 997.698 218.841 996.05 215.481C992.881 208.7 987.874 203.756 981.029 200.65C974.247 197.481 966.261 195.897 957.071 195.897C945.219 195.897 935.712 198.495 928.55 203.693C921.388 208.89 916.571 215.893 914.099 224.703L932.638 230.408C934.413 224.703 937.55 220.584 942.05 218.048C946.55 215.513 951.494 214.246 956.881 214.246C964.867 214.246 970.635 215.957 974.184 219.379C977.797 222.739 979.762 227.967 980.078 235.066C971.712 236.207 963.536 237.411 955.55 238.679C947.564 239.883 940.592 241.341 934.635 243.052C926.712 245.587 920.691 249.358 916.571 254.365C912.451 259.372 910.391 265.742 910.391 273.475C910.391 279.052 911.691 284.186 914.289 288.876C916.951 293.503 920.849 297.242 925.983 300.095C931.18 302.883 937.55 304.278 945.092 304.278ZM948.61 288.021C942.272 288.021 937.582 286.563 934.539 283.647C931.561 280.732 930.071 277.278 930.071 273.285C930.071 269.228 931.402 266.027 934.064 263.682C936.789 261.337 940.18 259.468 944.237 258.073C948.547 256.806 953.617 255.696 959.448 254.746C965.342 253.795 972.156 252.749 979.888 251.608C979.825 254.017 979.666 256.711 979.413 259.689C979.159 262.668 978.621 265.33 977.797 267.675C977.036 271.035 975.42 274.267 972.948 277.373C970.54 280.478 967.276 283.045 963.156 285.073C959.099 287.038 954.251 288.021 948.61 288.021Z" fill="white"/>
<path d="M1018.55 347.06H1038.52V294.2C1042.13 297.433 1046.28 299.904 1050.97 301.616C1055.72 303.39 1061.02 304.278 1066.85 304.278C1076.42 304.278 1084.66 301.901 1091.57 297.147C1098.54 292.33 1103.89 285.834 1107.63 277.658C1111.44 269.482 1113.34 260.26 1113.34 249.992C1113.34 239.661 1111.44 230.439 1107.63 222.327C1103.83 214.15 1098.41 207.717 1091.38 203.027C1084.4 198.274 1076.1 195.897 1066.47 195.897C1060.13 195.897 1054.42 196.974 1049.35 199.129C1044.28 201.221 1039.91 204.168 1036.23 207.971V198.749H1018.55V347.06ZM1064.09 286.309C1054.33 286.309 1047.23 282.918 1042.79 276.137C1038.42 269.355 1036.23 260.64 1036.23 249.992C1036.23 239.344 1038.42 230.661 1042.79 223.943C1047.17 217.224 1054.04 213.865 1063.42 213.865C1070.02 213.865 1075.44 215.481 1079.68 218.714C1083.93 221.946 1087.07 226.288 1089.09 231.739C1091.19 237.189 1092.23 243.274 1092.23 249.992C1092.23 256.774 1091.22 262.922 1089.19 268.436C1087.16 273.887 1084.05 278.228 1079.87 281.461C1075.75 284.693 1070.49 286.309 1064.09 286.309Z" fill="white"/>
<path d="M1157.62 304.278C1173.97 304.278 1186.3 298.352 1194.6 286.499V301.426H1212.19V238.203C1212.19 233.893 1212 229.869 1211.62 226.129C1211.24 222.39 1210.23 218.841 1208.58 215.481C1205.41 208.7 1200.4 203.756 1193.56 200.65C1186.78 197.481 1178.79 195.897 1169.6 195.897C1157.75 195.897 1148.24 198.495 1141.08 203.693C1133.92 208.89 1129.1 215.893 1126.63 224.703L1145.17 230.408C1146.94 224.703 1150.08 220.584 1154.58 218.048C1159.08 215.513 1164.02 214.246 1169.41 214.246C1177.4 214.246 1183.16 215.957 1186.71 219.379C1190.32 222.739 1192.29 227.967 1192.61 235.066C1184.24 236.207 1176.06 237.411 1168.08 238.679C1160.09 239.883 1153.12 241.341 1147.16 243.052C1139.24 245.587 1133.22 249.358 1129.1 254.365C1124.98 259.372 1122.92 265.742 1122.92 273.475C1122.92 279.052 1124.22 284.186 1126.82 288.876C1129.48 293.503 1133.38 297.242 1138.51 300.095C1143.71 302.883 1150.08 304.278 1157.62 304.278ZM1161.14 288.021C1154.8 288.021 1150.11 286.563 1147.07 283.647C1144.09 280.732 1142.6 277.278 1142.6 273.285C1142.6 269.228 1143.93 266.027 1146.59 263.682C1149.32 261.337 1152.71 259.468 1156.76 258.073C1161.07 256.806 1166.15 255.696 1171.98 254.746C1177.87 253.795 1184.68 252.749 1192.42 251.608C1192.35 254.017 1192.19 256.711 1191.94 259.689C1191.69 262.668 1191.15 265.33 1190.32 267.675C1189.56 271.035 1187.95 274.267 1185.48 277.373C1183.07 280.478 1179.8 283.045 1175.68 285.073C1171.63 287.038 1166.78 288.021 1161.14 288.021Z" fill="white"/>
<path d="M1219.77 301.426H1243.44L1269.77 265.013L1295.92 301.426H1319.59L1281.09 249.517L1318.64 198.749H1295.06L1269.77 234.02L1244.2 198.749H1220.62L1258.17 249.517L1219.77 301.426Z" fill="white"/>
</g>
<path fill-rule="evenodd" clip-rule="evenodd" d="M235.622 310.023C227.742 305.82 219.379 298.207 193.598 271.77C115.563 191.747 45.9089 211.343 49.2669 195.397C52.5738 179.698 123.964 155.424 190.951 122.354C259.393 88.5654 259.256 88.6146 273.059 92.6555C287.577 96.9058 283.687 92.4944 373.037 206.021C417.612 262.657 432.928 281.557 434.366 281.701C436.59 281.923 476.397 225.566 476.79 221.637C476.955 219.984 445.095 174.212 434.283 160.57L429.389 154.395L424.822 158.343C422.31 160.514 415.372 167.041 409.406 172.847C400.115 181.887 393.328 197.699 388.064 202.51C382.571 200.055 380.942 199.575 380.684 199.549C378.531 199.334 368.196 184.847 369.172 183.414C372.844 178.027 421.148 136.963 424.103 136.674C433.836 135.721 437.259 141.625 468.645 186.645C487.569 213.788 488.538 215.767 488.094 226.351L487.857 231.991L484.264 238.239C479.141 247.148 456.423 282.765 450.306 291.478C443.045 301.819 439.108 304.171 431.556 302.675C425.22 301.42 420.544 296.12 366.83 229.313C287.293 130.389 272.326 112.548 269.39 113.166C263.741 114.356 145.516 176.001 145.301 178.148C145.006 181.095 239.889 281.409 247.247 286.145C252.263 289.374 255.449 285.056 287.369 256.914C289.309 255.204 300.779 244.883 312.859 233.978C324.939 223.074 335.661 213.443 336.685 212.576L338.546 211.002L347.598 213.788C354.092 221.548 352.86 228.317 351.984 229.217C350.139 231.111 316.845 263.984 306.388 274.236C273.16 306.812 266.788 311.405 253.5 312.345C245.27 312.929 239.716 312.207 235.622 310.023Z" fill="#2C2C2C"/>
<path fill-rule="evenodd" clip-rule="evenodd" d="M486.182 220.952C489.851 227.696 484.122 235.698 476.556 234.399L417.635 224.284C415.995 224.002 415.076 222.235 415.787 220.731C416.183 219.895 417.005 219.344 417.929 219.295L477.63 216.167C481.164 215.982 484.491 217.843 486.182 220.952Z" fill="white"/>
<path fill-rule="evenodd" clip-rule="evenodd" d="M153.604 184.637C155.972 190.713 151.732 197.334 145.222 197.724L29.8807 204.624C24.9436 204.92 22.7607 198.52 26.8494 195.737V195.737C27.3349 195.406 27.8763 195.166 28.4474 195.028L138.383 168.499C143.058 167.371 147.847 169.871 149.594 174.351L153.604 184.637Z" fill="white"/>
<path fill-rule="evenodd" clip-rule="evenodd" d="M248.69 308.657C241.125 304.623 233.097 297.315 208.35 271.938C133.444 195.123 131.759 192.958 134.982 177.651C138.157 162.582 141.508 160.256 205.81 128.512C271.507 96.0781 271.376 96.1253 284.626 100.004C298.562 104.084 294.828 99.8496 380.595 208.824C423.383 263.19 438.085 281.332 439.465 281.47C441.6 281.684 479.811 227.586 480.189 223.814C480.348 222.228 449.765 178.291 439.386 165.196L434.688 159.268L430.304 163.058C427.893 165.142 421.234 171.408 415.506 176.981C400.718 191.371 388.559 202.675 387.936 202.612C385.869 202.405 375.948 188.5 376.886 187.124C380.41 181.953 426.778 142.536 429.614 142.258C438.957 141.343 442.242 147.01 472.37 190.225C490.535 216.281 491.466 218.18 491.04 228.34L490.813 233.754L487.363 239.751C482.446 248.303 460.638 282.492 454.766 290.856C447.797 300.782 444.018 303.04 436.768 301.604C430.686 300.399 426.198 295.311 374.637 231.183C298.289 136.225 283.922 119.1 281.104 119.693C275.681 120.835 162.196 180.008 161.99 182.069C161.706 184.898 252.786 281.19 259.848 285.737C264.664 288.836 267.722 284.691 298.362 257.677C300.224 256.036 311.234 246.129 322.83 235.661C334.426 225.194 344.718 215.949 345.7 215.117L347.488 213.606L354.403 221.869C360.637 229.318 361.227 230.227 360.386 231.091C358.616 232.909 326.656 264.464 316.619 274.305C284.723 305.575 278.606 309.983 265.851 310.887C257.95 311.446 252.619 310.754 248.69 308.657Z" fill="white"/>
<defs>
<filter id="filter0_d_1054_909" x="559.621" y="146.523" width="777.969" height="218.539" filterUnits="userSpaceOnUse" color-interpolation-filters="sRGB">
<feFlood flood-opacity="0" result="BackgroundImageFix"/>
<feColorMatrix in="SourceAlpha" type="matrix" values="0 0 0 0 0 0 0 0 0 0 0 0 0 0 0 0 0 0 127 0" result="hardAlpha"/>
<feOffset/>
<feGaussianBlur stdDeviation="9"/>
<feComposite in2="hardAlpha" operator="out"/>
<feColorMatrix type="matrix" values="0 0 0 0 1 0 0 0 0 1 0 0 0 0 1 0 0 0 0.11 0"/>
<feBlend mode="normal" in2="BackgroundImageFix" result="effect1_dropShadow_1054_909"/>
<feBlend mode="normal" in="SourceGraphic" in2="effect1_dropShadow_1054_909" result="shape"/>
</filter>
</defs>
</svg>
