<svg width="152" height="115" viewBox="0 0 152 115" fill="none" xmlns="http://www.w3.org/2000/svg">
<path fill-rule="evenodd" clip-rule="evenodd" d="M66.9782 87.8799C64.7583 86.6959 62.4025 84.5514 55.1404 77.1045C33.159 54.5632 13.5383 60.083 14.4842 55.5912C15.4157 51.169 35.5255 44.3314 54.3949 35.0159C73.6739 25.4981 73.6355 25.512 77.5235 26.6503C81.6131 27.8475 80.5174 26.6049 105.686 58.5837C118.242 74.5374 122.556 79.8613 122.962 79.9019C123.588 79.9646 134.801 64.0893 134.912 62.9826C134.959 62.5171 125.984 49.6237 122.938 45.7809L121.56 44.0415L120.273 45.1535C119.566 45.7652 117.611 47.6037 115.931 49.2391C113.314 51.7857 111.402 56.2397 109.919 57.5947C108.372 56.9032 107.913 56.7681 107.84 56.7608C107.234 56.7001 104.322 52.6194 104.597 52.2158C105.632 50.6984 119.238 39.1312 120.071 39.0497C122.812 38.7812 123.777 40.4443 132.618 53.1258C137.948 60.7718 138.221 61.3292 138.096 64.3106L138.03 65.8994L137.017 67.6594C135.574 70.1688 129.175 80.2015 127.452 82.656C125.406 85.569 124.297 86.2314 122.17 85.8101C120.385 85.4565 119.068 83.9635 103.938 65.145C81.533 37.2793 77.317 32.2538 76.49 32.4279C74.8988 32.763 41.5964 50.1276 41.5358 50.7323C41.4527 51.5624 68.1801 79.8197 70.2527 81.1538C71.6657 82.0632 72.5631 80.8469 81.5546 72.9196C82.1009 72.4381 85.3319 69.5308 88.7347 66.4591C92.1374 63.3873 95.1577 60.6745 95.4461 60.4304L95.9705 59.9869L98.5202 60.7716C100.35 62.9576 100.002 64.8644 99.7556 65.1178C99.2362 65.6513 89.8576 74.9114 86.912 77.7992C77.5521 86.9755 75.757 88.2691 72.014 88.5341C69.6957 88.6983 68.1312 88.4951 66.9782 87.8799Z" fill="#2C2C2C"/>
<path fill-rule="evenodd" clip-rule="evenodd" d="M137.515 62.4893C138.61 64.3543 137.07 66.6598 134.928 66.3635L118.247 64.056C117.783 63.9918 117.508 63.5028 117.694 63.0729C117.798 62.8339 118.024 62.671 118.284 62.6489L135.063 61.2206C136.057 61.136 137.01 61.6295 137.515 62.4893Z" fill="white"/>
<path fill-rule="evenodd" clip-rule="evenodd" d="M43.8697 52.5639C44.5369 54.2754 43.3424 56.1404 41.5087 56.2501L9.01853 58.194C7.6278 58.2772 7.01292 56.4744 8.16464 55.6905C8.30142 55.5973 8.45392 55.5298 8.61477 55.4909L39.5823 48.0178C40.8991 47.7001 42.2481 48.4043 42.7402 49.6664L43.8697 52.5639Z" fill="white"/>
<path fill-rule="evenodd" clip-rule="evenodd" d="M70.6567 87.492C68.5258 86.3555 66.2644 84.2969 59.2935 77.1486C38.1933 55.511 37.7187 54.9011 38.6267 50.5893C39.5208 46.3444 40.465 45.6894 58.5778 36.7474C77.0839 27.6112 77.0471 27.6245 80.7793 28.7171C84.7049 29.8664 83.6531 28.6736 107.813 59.3704C119.865 74.6844 124.007 79.7949 124.396 79.8338C124.997 79.894 135.761 64.6552 135.867 63.5928C135.912 63.146 127.297 50.7695 124.373 47.0808L123.05 45.4111L121.815 46.4786C121.136 47.0657 119.26 48.8305 117.647 50.4004C113.481 54.4538 110.056 57.6381 109.881 57.6205C109.298 57.5622 106.504 53.6452 106.768 53.2578C107.76 51.8012 120.822 40.6977 121.621 40.6194C124.252 40.3617 125.178 41.9581 133.665 54.1312C138.781 61.4707 139.043 62.0057 138.924 64.8676L138.859 66.3927L137.888 68.0821C136.503 70.4909 130.36 80.1215 128.706 82.4775C126.743 85.2738 125.678 85.9096 123.636 85.5052C121.923 85.1657 120.658 83.7326 106.134 65.6685C84.6279 38.9201 80.581 34.0961 79.7872 34.2631C78.2597 34.5848 46.2924 51.2532 46.2343 51.8336C46.1545 52.6305 71.8104 79.755 73.7999 81.0355C75.1563 81.9085 76.0177 80.741 84.6487 73.1315C85.1731 72.6693 88.2745 69.8786 91.541 66.93C94.8073 63.9814 97.7064 61.3773 97.9832 61.143L98.4867 60.7173L100.435 63.0448C102.191 65.1432 102.357 65.3992 102.12 65.6425C101.621 66.1546 92.6188 75.0434 89.7914 77.8155C80.8067 86.6239 79.0835 87.8656 75.4906 88.1199C73.2652 88.2776 71.7635 88.0825 70.6567 87.492Z" fill="white"/>
</svg>
